<svg width="74" height="74" viewBox="0 0 74 74" fill="none" xmlns="http://www.w3.org/2000/svg">
<path fill-rule="evenodd" clip-rule="evenodd" d="M0 11.5625C0 5.17671 5.17671 0 11.5625 0H62.4375C68.8233 0 74 5.17671 74 11.5625V62.4375C74 68.8233 68.8233 74 62.4375 74H11.5625C5.17671 74 0 68.8233 0 62.4375V11.5625ZM18.9625 30.7563V55.5H26.825V30.7563H18.9625ZM18.5 22.8938C18.5 25.4375 20.35 27.2875 22.8938 27.2875C25.4375 27.2875 27.2875 25.4375 27.2875 22.8938C27.2875 20.35 25.4375 18.5 22.8938 18.5C20.5813 18.5 18.5 20.35 18.5 22.8938ZM47.6375 55.5H55.0375V40.2375C55.0375 32.6062 50.4125 30.0625 46.0187 30.0625C42.0875 30.0625 39.3125 32.6062 38.6187 34.225V30.7563H31.2188V55.5H39.0812V42.3188C39.0812 38.85 41.3937 37 43.7062 37C46.0187 37 47.6375 38.1562 47.6375 42.0875V55.5Z" fill="white"/>
</svg>
