<svg width="74" height="74" viewBox="0 0 74 74" fill="none" xmlns="http://www.w3.org/2000/svg">
<path fill-rule="evenodd" clip-rule="evenodd" d="M11.5625 0H62.4375C68.8233 0 74 5.17671 74 11.5625V62.4375C74 68.8233 68.8233 74 62.4375 74H11.5625C5.17671 74 0 68.8233 0 62.4375V11.5625C0 5.17671 5.17671 0 11.5625 0ZM38.5999 27.7671C35.2861 29.1454 28.6631 31.9982 18.7311 36.3254C17.1182 36.9668 16.2734 37.5942 16.1965 38.2077C16.0665 39.2446 17.3649 39.6529 19.133 40.2088C19.3735 40.2845 19.6227 40.3628 19.8782 40.4459C21.6178 41.0113 23.9578 41.6729 25.1742 41.6992C26.2777 41.723 27.5093 41.2681 28.869 40.3344C38.1489 34.0702 42.9392 30.904 43.2399 30.8357C43.4521 30.7876 43.7461 30.727 43.9453 30.9041C44.1445 31.0812 44.1249 31.4165 44.1038 31.5065C43.9752 32.0548 38.8784 36.7932 36.2408 39.2454C35.4186 40.0098 34.8353 40.5521 34.7161 40.6759C34.449 40.9533 34.1768 41.2158 33.9151 41.468C32.2991 43.0259 31.0872 44.1942 33.9823 46.102C35.3735 47.0188 36.4868 47.777 37.5975 48.5334C38.8104 49.3594 40.0202 50.1833 41.5855 51.2093C41.9843 51.4707 42.3652 51.7423 42.7362 52.0067C44.1478 53.0131 45.416 53.9172 46.9827 53.773C47.8931 53.6892 48.8335 52.8332 49.3111 50.28C50.4398 44.2462 52.6583 31.1727 53.1711 25.7854C53.216 25.3135 53.1595 24.7094 53.1141 24.4442C53.0687 24.1791 52.9739 23.8012 52.6292 23.5216C52.221 23.1903 51.5908 23.1205 51.309 23.1252C50.0275 23.148 48.0615 23.8317 38.5999 27.7671Z" fill="white" fill-opacity="1"/>
</svg>
